# xmcd
#
# Track frame offsets:
#	150
#	18037
#	30195
#	49125
#	59100
#	74132
#	93867
#	107042
#	125597
#	140082
#	158240
#	175202
#	186117
#	198135
#	213000
#	226927
#	238832
#	250790
#	283965
#	303730
#	319890
#	338747
#
# Disc length: 4718 seconds
#
# Revision: 1
# Processed by: cddbd v1.5.1PL0 Copyright (c) Steve Scherf et al.
# Submitted via: audiograbber 1.83.01
#
DISCID=43126c16
DTITLE=Nanci Griffith - From A Distance (The Very Best Of Nanci Griffith)
DYEAR=2002
DGENRE=Country
TTITLE0=Lone Star State Of Mind
TTITLE1=Cold Hearts/Closed Minds
TTITLE2=From A Distance
TTITLE3=Ford Econoline
TTITLE4=Trouble In The Fields
TTITLE5=There's A Light Beyond These Woods (Mary Margaret)
TTITLE6=Looking For The Time (Workin' Girl) (Live)
TTITLE7=I Don't Want To Talk About Love
TTITLE8=Drive-In Movies And Dashboard Lights
TTITLE9=It's A Hard Life Wherever You Go
TTITLE10=If Wishes Were Changes
TTITLE11=Once In A Very Blue Moon (Live)
TTITLE12=Anyone Can Be Somebody's Fool
TTITLE13=I Knew Love
TTITLE14=Gulf Coast Highway (With Mac McAnally)
TTITLE15=I Wish It Would Rain
TTITLE16=Outbound Plane
TTITLE17=Love At The Five And Dime (Live)
TTITLE18=It's Just Another Morning Here
TTITLE19=Late Night Grande Hotel
TTITLE20=Hometown Streets
TTITLE21=The Wing And The Wheel (Live)
EXTD=
EXTT0=
EXTT1=
EXTT2=
EXTT3=
EXTT4=
EXTT5=
EXTT6=
EXTT7=
EXTT8=
EXTT9=
EXTT10=
EXTT11=
EXTT12=
EXTT13=
EXTT14=
EXTT15=
EXTT16=
EXTT17=
EXTT18=
EXTT19=
EXTT20=
EXTT21=
PLAYORDER=
